# xmcd
#
# Track frame offsets:
#	150
#	10126
#	28489
#	40214
#	55737
#	66186
#	77449
#	90637
#	106885
#	118993
#	131881
#	144598
#	156007
#	168632
#	180017
#	191007
#	203362
#	215974
#	228796
#	239278
#	248833
#	261968
#
# Disc length: 3651 seconds
#
# Revision: 0
# Processed by: cddbd v1.5.2PL0 Copyright (c) Steve Scherf et al.
# Submitted via: EasyCDDAExtractor 16.0.1.1
#
DISCID=310e4116
DTITLE=Bonnie Guitar - I Believe In Love and Affair!
DYEAR=1968
DGENRE=Country
TTITLE0=I Believe In Love
TTITLE1=Honey
TTITLE2=A Maiden's Prayer
TTITLE3=I Love You Joey
TTITLE4=I'm Not Through Loving You
TTITLE5=Sands Of Rosa Rita
TTITLE6=Gentle On My Mind
TTITLE7=Faded Love
TTITLE8=You Can't Stop My Heart From Breaking
TTITLE9=Cathedral To Jimmy
TTITLE10=Lonely Wine
TTITLE11=Bits And Pieces
TTITLE12=I'll Meet You In Denver
TTITLE13=Noon rain
TTITLE14=I'll Pick Up My Heart (And Go Home)
TTITLE15=Tender Words
TTITLE16=Much Too Well
TTITLE17=That See Me Later Rock
TTITLE18=Look What You're Doing
TTITLE19=My Arms Stay Open Late
TTITLE20=Perfect  Stranger
TTITLE21=Two Srangers
EXTD=
EXTT0=
EXTT1=
EXTT2=
EXTT3=
EXTT4=
EXTT5=
EXTT6=
EXTT7=
EXTT8=
EXTT9=
EXTT10=
EXTT11=
EXTT12=
EXTT13=
EXTT14=
EXTT15=
EXTT16=
EXTT17=
EXTT18=
EXTT19=
EXTT20=
EXTT21=
PLAYORDER=
